# xmcd
#
# Track frame offsets: 
#        150
#        19281
#        37222
#        64284
#        84464
#        98885
#        120743
#        141134
#        184093
#        212449
#
# Disc length: 3551 seconds
#
# Revision: 0
# Processed by: cddbd v1.5.2PL0 Copyright (c) Steve Scherf et al.
# Submitted via: ExactAudioCopyFreeDBPlugin 1.0
#
DISCID=8e0ddd0a
DTITLE=Colin John - Two Sides Of Colin John - Disc 2
DYEAR=2012
DGENRE=Blues
TTITLE0=Foxey
TTITLE1=Soul Sanctification
TTITLE2=Venus Rising
TTITLE3=Don't Do It
TTITLE4=For Your Pleasure
TTITLE5=Hoodoo Voodoo
TTITLE6=It' Ain't Me
TTITLE7=Beer Drinking Woman
TTITLE8=People Say
TTITLE9=Love and Happiness - Voodoo Chile
EXTD=
EXTT0=
EXTT1=
EXTT2=
EXTT3=
EXTT4=
EXTT5=
EXTT6=
EXTT7=
EXTT8=
EXTT9=
PLAYORDER=
